<svg width="25" height="25" viewBox="0 0 25 25" fill="none" xmlns="http://www.w3.org/2000/svg">
<path fill-rule="evenodd" clip-rule="evenodd" d="M18.0136 14.8886C17.8239 15.085 17.7189 15.3482 17.7212 15.6213C17.7236 15.8944 17.8332 16.1557 18.0263 16.3488C18.2194 16.5419 18.4807 16.6515 18.7538 16.6539C19.0269 16.6562 19.2901 16.5512 19.4865 16.3615L22.5209 13.3271L22.5667 13.2792C22.6772 13.1816 22.7656 13.0617 22.8262 12.9274C22.8868 12.7931 22.9181 12.6474 22.9181 12.5C22.9181 12.3527 22.8868 12.207 22.8262 12.0727C22.7656 11.9383 22.6772 11.8184 22.5667 11.7209C22.5519 11.7045 22.5366 11.6885 22.5209 11.6729L19.4865 8.63857C19.3904 8.53908 19.2755 8.45972 19.1484 8.40513C19.0213 8.35053 18.8846 8.3218 18.7463 8.3206C18.608 8.31939 18.4708 8.34575 18.3428 8.39813C18.2148 8.4505 18.0985 8.52785 18.0007 8.62565C17.9029 8.72346 17.8255 8.83976 17.7732 8.96778C17.7208 9.0958 17.6944 9.23296 17.6956 9.37127C17.6968 9.50959 17.7256 9.64627 17.7802 9.77336C17.8348 9.90045 17.9141 10.0154 18.0136 10.1115L19.3605 11.4584H13.5417C13.2655 11.4584 13.0005 11.5681 12.8052 11.7635C12.6098 11.9588 12.5001 12.2238 12.5001 12.5C12.5001 12.7763 12.6098 13.0412 12.8052 13.2366C13.0005 13.4319 13.2655 13.5417 13.5417 13.5417H19.3605L18.0136 14.8886Z" fill="#0A0909"/>
<path fill-rule="evenodd" clip-rule="evenodd" d="M5.20818 2.08325C4.37938 2.08325 3.58453 2.41249 2.99847 2.99854C2.41242 3.58459 2.08318 4.37945 2.08318 5.20825V19.7916C2.08318 20.6204 2.41242 21.4152 2.99847 22.0013C3.58453 22.5873 4.37938 22.9166 5.20818 22.9166H15.104C15.7947 22.9166 16.4571 22.6422 16.9454 22.1538C17.4338 21.6655 17.7082 21.0031 17.7082 20.3124V17.4301C17.2297 17.1536 16.8805 16.6985 16.7373 16.1647C16.5941 15.6309 16.6687 15.0621 16.9446 14.5833H13.5415C12.989 14.5833 12.4591 14.3638 12.0684 13.9731C11.6777 13.5824 11.4582 13.0525 11.4582 12.4999C11.4582 11.9474 11.6777 11.4175 12.0684 11.0268C12.4591 10.6361 12.989 10.4166 13.5415 10.4166H16.9446C16.8077 10.1796 16.7189 9.91786 16.6832 9.64647C16.6474 9.37508 16.6656 9.09931 16.7365 8.83492C16.8074 8.57053 16.9297 8.32271 17.0964 8.10562C17.2632 7.88853 17.471 7.70642 17.7082 7.56971V4.68742C17.7082 3.99675 17.4338 3.33437 16.9454 2.84599C16.4571 2.35762 15.7947 2.08325 15.104 2.08325H5.20818Z" fill="#0A0909"/>
</svg>
